<?xml version="1.0" encoding="UTF-8"?>
<svg id="Calque_2" data-name="Calque 2" xmlns="http://www.w3.org/2000/svg" viewBox="0 0 491.06 439.46">
  <defs>
    <style>
      .cls-1 {
        fill: #001808;
        stroke-width: 0px;
      }
    </style>
  </defs>
  <g id="Calque_1-2" data-name="Calque 1">
    <g>
      <path class="cls-1" d="m168.02,342.62c.73.69,1.76,1.06,2.74.84-1.17-2.79-2.65-5.46-4.4-7.93,1.21.83,2.43,1.66,3.66,2.49-1.89-3.78-3.76-7.55-5.64-11.33,1.08.78,2.16,1.55,3.26,2.33-3.01-6.18-3.6-13.23-4.14-20.07-.22-2.84-.45-5.66-.66-8.5.96-3.07,1.67-6.21,2.01-9.4.66-6.34-.18-12.95-3.2-18.57-.77-1.42-1.61-3.05-2.55-4.7.85.31,1.79.38,2.67.17-1.84-1.77-2.89-5.9-.34-5.92-.94-.08-2.02-.25-2.51-1.06-.11-.19-.14-.42-.11-.64-.02-.02-.04-.04-.06-.05.04-.05.07-.08.11-.13.08-.35.32-.65.6-.79,1.21-1.76,1.94-3.85,2.03-5.98-.41.35-.94.57-1.49.59.96-1.82,1.8-3.7,2.51-5.64-.89.95-2.09,1.58-3.38,1.73.01-.04.01-.06.01-.08.6-2.56,1.18-5.38,1.32-8.13-.38.35-.75.75-1.07,1.15-.06-3.17-.38-6.4-.2-9.54-.23-.78-.42-1.58-.53-2.39-1.01-7.43-2.83-14.72-5.58-21.71-.37-.94-.73-2.06-.18-2.9.17-.25.45-.38.75-.42-1.59-1.35-3.16-2.68-4.75-4.02.41-2.26.81-4.51,1.21-6.77-1.32.89-2.65,1.78-3.97,2.66,1.98-1.72,2.95-4.53,2.43-7.12-.9.71-1.82,1.41-2.73,2.1.57-16.25-5.12-31.98-10.74-47.23-5.63,9.99-11.26,20-16.88,30.01-6.18,10.98-20.3,13.01-31.71,13.6-13.69.72-25.45-10.23-36.74-17.16-.42,13.87,3.05,27.83,9.92,39.88-2.01-.87-4.02-1.74-6.03-2.62,4.5,4.2,7,10.46,6.61,16.6-.3,4.97-2.37,9.75-2.25,14.73.16,6.15,3.96,12.05,9.49,14.73-1.12,1.67-2.24,3.34-3.36,5.03,1.58-.35,3.16-.7,4.74-1.05-1.96.85.24,4.53,1.92,3.22-.97,2.16-1.95,4.34-2.93,6.52,1.4-.1,2.75-.58,3.91-1.36-.63,1.82-1.26,3.63-1.9,5.45,1.15-1.18,2.87.83,3.05,2.48.69,6.46-3.16,12.42-6.53,17.98-6.84,11.29-12.35,23.38-16.39,35.95-.25.77-.48,1.67-.05,2.36.23.36.73.51,1.14.43-.73.76-1.47,1.5-2.2,2.26,1.59-1.19,2.67,2.07,1.97,3.93-3.99,10.8-11.75,21.59-8.71,32.69,2.55,9.28,12.18,15.62,13.79,25.12.58,3.41.04,6.89-.14,10.36-.72.62-1.47,1.2-2.3,1.7-4.06,2.46-10.25,2.36-12.67-1.72-1.16-1.96-1.24-4.45-2.57-6.31-1.33-1.85-5-2.11-5.32.15-1.41-7.14-3.56-14.14-6.42-20.83-.09,1.25-.72,2.45-1.7,3.23-1.38-4.08-2.75-8.16-4.13-12.24,0,1.84,0,3.68,0,5.52-6.44-20.27-2.06-43.65,11.27-60.22,1.39-1.73,2.32-5.11.13-5.42,1.67-3.69,3.34-7.37,5-11.06.32-2.51.64-5.03.97-7.54.46-3.61.92-7.33-.03-10.85-.95-3.51-3.68-6.81-7.29-7.27-28.13,27.17-38.33,71.36-24.96,108.11,3.32,9.12,8.2,18.06,16.01,23.81-1-.71-2.39.67-2.17,1.88.22,1.2,1.32,2.02,2.33,2.71-1.4-.27-2.79-.54-4.19-.81,4.86,13.41,14.98,26.16,28.99,28.82,11.04,2.1,25.42.96,37.24-3.92,2.43,3.12,7.41,3.34,11.55,3.11,12.24-.67,24.5-1.36,36.75-2.03,7.93-.44,14.56-8.51,13.48-16.38,3.39,1.82,6.49-2.92,7.37-6.67.28-1.2.76-2.62,1.96-2.86.45-.08.81.19,1.01.58.41-1.3.83-2.61,1.25-3.92.37.63,1.3,1.18,1.89.55,1.01-1.05.37-2.78-.3-4.06.42.79.84,1.58,1.26,2.36,7.72-20.08,15.41-42.77,7.74-62.57Z"/>
      <g>
        <path class="cls-1" d="m185.69,49.77c2.55,3.74,5.09,7.49,7.65,11.24-3.28,3.45-4.71,8.54-3.69,13.18,9.14-3.09,16.5-10.98,18.98-20.32-1.06,11.6.55,23.24,2.45,34.72,1.86,11.37,4.94,23.95,7.34,35.22-8.41,1.98-13.94,10.35-15.9,18.77-1.98,8.41-1.28,17.21-2.03,25.81-1.62,18.29-9.8,36.32-6.46,54.36,1.15,6.21,3.65,12.11,5.61,18.12,5,15.15,6.72,31.16,8.41,47.04,1.38,12.98,2.78,25.96,4.17,38.96,1.51,14.07,3.01,28.18,3.38,42.35.31,11.21-.54,23.58-8.31,31.69-2.21,2.32-4.91,4.18-6.81,6.77-1.91,2.57-2.86,6.28-1.12,8.97,1.74,2.69,6.77,2.69,7.63-.38-.22,5.01,8.26,7.2,10.49,2.69,4.05,2.69,9.8,2.49,13.64-.49,3.85-2.97,5.48-8.51,3.88-13.09,6.6,1.25,13.2,2.49,19.8,3.75.6,4.51-2.55,8.55-5.51,12-2.95,3.46-6.08,7.52-5.46,12.03.62,4.51,7.61,7.35,9.72,3.34,5.41,3.26,12.15,3.12,18.46,2.86,2.02-.08,4.12-.18,5.83-1.25,1.89-1.17,2.94-3.31,3.8-5.35,3.18-7.54,5.17-15.57,5.86-23.72,7.58-.62,15.15-1.23,22.73-1.85-1.86.12-2.14,3.11-.68,4.28,1.45,1.17,3.52.98,5.37.75-1.2.77-2.38,1.55-3.58,2.32,3.49,1.34,6.97,2.66,10.44,4-4.54,2.14-3.69,9.77.71,12.15,4.41,2.4,10.12.51,13.77-2.92-1.05,1.77.37,4.17,2.28,4.92,1.92.75,4.08.34,6.09-.08,14.26-2.94,29.7-11.51,44.04-8.91,5.98,1.08,11.54-6.4,8.77-11.81-.55-1.09-1.37-2.12-1.35-3.34.01-.61.23-1.14.56-1.62,9.29-1.06,19.12-3.51,21.8-4.52,7.33-2.78,13.93-7.17,20.45-11.53,15.51-10.35,31.55-21.26,40.89-37.4,9.64-16.66,10.87-36.73,11.25-55.98.41-21.34-1.21-45.53-17.5-59.31-1.41,2.2-2.82,4.41-4.23,6.61.22-2.75-3.72-4.22-6.11-2.84-2.39,1.38-3.42,4.25-4.19,6.9-3.74,12.78-5.83,26.04-6.2,39.36l-3.78-3.11c.14,17.68.29,35.35.43,53.03-1.31-1.81-2.62-3.62-3.93-5.43-2.31,5.82-4.61,11.65-6.92,17.47-4.77,12.06-9.84,24.56-19.37,33.36-1.16,1.07-2.39,2.05-3.66,2.98,5.32-9.92,8.39-21.59,11-32.64.8-3.37,1.6-6.86,1.06-10.29-.6-3.72-2.71-7-4.55-10.31-6.46-11.57-9.92-24.52-14.4-36.98-12.67-35.22-33.61-66.76-54.36-97.9,2.14-.6,4.55.71,5.46,2.69-6.55-22.56-33.59-36.93-34.72-60.51,1.41.62,2.81,1.23,4.23,1.85l-25.06-41.85c.62.26,1.46.18,1.92-.34.82-.92.66-2.32.46-3.55-1.4-8.69-2.81-17.38-4.23-26.09,2.34,7.12,5.48,13.98,9.35,20.4,1.21,2.03,3.18,4.28,5.44,3.66,2.66-.72,2.77-4.34,3.21-7.04,1.71-10.44,15.41-15.67,17.06-26.13,1.08-6.8-3.54-13.26-8.91-17.57-5.38-4.29-11.75-7.35-16.57-12.27-4.37-4.46-7.2-10.2-11.32-14.89-4.08-4.63-10.28-8.31-16.21-6.72-.09.42-.29.63-.2.05.06-.02.14-.03.2-.05.12-.43.11-1.09-.51-1.25-3-.75-6.26-.52-9.14.68-5.63,2.34-13.89-.12-19.06-3.37-3.4-2.14-6.54-4.97-10.48-5.81-4.55-.98-9.18.91-13.46,2.75-13.15,5.69-26.3,11.37-39.45,17.04-4.71,2.05-9.78,4.43-12,9.04-3.21,6.74,1.14,14.47,5.34,20.66Zm49.65,249.12c2.08,2,4.14,3.98,6.2,5.97-.08-6.01-3.12-11.55-4.57-17.38-.83-3.29-1.18-6.78-1.4-10.31,2.91,4.38,5.92,8.23,8.31,10.91-.11-2.46-.2-4.92-.31-7.38,7.24,13.52,15.41,26.52,24.44,38.9-11.34-.4-21.67,9.12-23.8,20.27-2.11,11.15,3.08,22.92,11.64,30.36,4.12,3.58,9.61,8.51,7.03,13.34-7.89.54-15.5,4.29-20.75,10.2-2.77-.71-3.61-4.38-2.8-7.11.83-2.72,2.72-5.01,3.63-7.72,2.8-8.51-4.86-16.49-8.09-24.84-6.72-17.38,6.21-37.48.46-55.2Z"/>
        <path class="cls-1" d="m359.77,201.09c.2.42.32.86.37,1.32-.11-.45-.23-.88-.37-1.32Z"/>
      </g>
    </g>
  </g>
</svg>